<svg id="Layer_1" data-name="Layer 1" xmlns="http://www.w3.org/2000/svg" viewBox="0 0 2160 2160"><defs><style>.cls-1{fill:#000030;}.cls-2{fill:#11114f;}</style></defs><g id="Layer_1-2" data-name="Layer 1"><rect class="cls-1" width="2160" height="2160"/><path class="cls-2" d="M1617,1132.5a129,129,0,0,0-46.5-43.9L1174,868.3a131.39,131.39,0,0,0-17.9-8.2l105.8,180.8a161.82,161.82,0,0,1-268.8,179.2l-18.7-31.6L850.2,978.2,650.3,1088.9a129,129,0,0,0-50.4,175.5c1.2,2.2,2.5,4.3,3.8,6.4a129.61,129.61,0,0,0,42.6,41.7L1044.7,1507a128.94,128.94,0,0,0,133.3-.1l396.6-194.3A127.82,127.82,0,0,0,1617,1271a129.52,129.52,0,0,0,20-69v-.6A130.07,130.07,0,0,0,1617,1132.5ZM828.7,1270.9a69.65,69.65,0,1,1,69.7-69.7A69.69,69.69,0,0,1,828.7,1270.9Zm563.4,0a69.65,69.65,0,1,1,69.7-69.7A69.54,69.54,0,0,1,1392.1,1270.9Z"/><path class="cls-2" d="M584.8,1394.9l460,231.4a129.07,129.07,0,0,0,133,0l460.1-231.4v132a129.35,129.35,0,0,1-62.4,110.6L1179,1831.6a129.16,129.16,0,0,1-133.3.1L647.4,1637.2a129.07,129.07,0,0,1-62.6-110.6Z"/><path class="cls-2" d="M1208.9,1152.9a91.79,91.79,0,0,1-102.8,60.2h0a91.7,91.7,0,0,1-63.2-44.1l-67.3-115h0l-52.2-89.2-12-20.5L886.7,902a301.72,301.72,0,0,1-65,7.1c-4,0-8-.1-12-.2C649.8,902.5,522,770.9,522,609.4,522,444,656.2,309.8,821.6,309.8S1121.2,444,1121.2,609.4a299,299,0,0,1-76,199.5l28.5,48.7,8.2,14,52.4,89.6,67.2,115A91.82,91.82,0,0,1,1208.9,1152.9Z"/></g></svg>