<svg xmlns="http://www.w3.org/2000/svg" viewBox="0 0 934.33 582"><defs><style>.cls-1{fill:#fff;}</style></defs><g id="Layer_2" data-name="Layer 2"><g id="Layer_1-2" data-name="Layer 1"><path class="cls-1" d="M913.8,259.12,787.23,184.19a42.91,42.91,0,0,0-5.73-2.83l32.67,59.56a52.47,52.47,0,0,1-88.73,55.69l-5.77-10.41-38.38-69.27-65.77,34.12a41.87,41.87,0,0,0-3.28,72.44l127.4,66.57a41.85,41.85,0,0,0,43.21,1.15l130.26-59.46a41.84,41.84,0,0,0,21.2-35.27v-.19A41.85,41.85,0,0,0,913.8,259.12ZM671.7,311.63a22.58,22.58,0,1,1,23.2-22A22.58,22.58,0,0,1,671.7,311.63Zm182.64,5a22.59,22.59,0,1,1,23.2-22A22.59,22.59,0,0,1,854.34,316.64Z"/><path class="cls-1" d="M932.94,359l-1.18,42.79a41.82,41.82,0,0,1-21.21,35.27L780.29,496.48a41.83,41.83,0,0,1-43.2-1.15l-34.27-17.91-25.06-13.1.16-1.3.11-.91.19-1.63,3.48-29.18L610,422.77h0l-4.53-.54-4-.48a41.84,41.84,0,0,1-11-29.42l1.16-42.69,15,8.05,91,48.94,12.92,6.95,28.2,15.17a41.88,41.88,0,0,0,43.13,1.18Z"/><path class="cls-1" d="M796,276.76a29.79,29.79,0,0,1-33.86,18.58h0a29.73,29.73,0,0,1-20.09-14.84l-20.79-37.88h0l-16.13-29.38-3.69-6.74-7.65-13.94a97.23,97.23,0,0,1-21.15,1.72c-1.3,0-2.59-.09-3.87-.18A97.29,97.29,0,1,1,746,163.8l8.81,16,2.52,4.59L773.52,214l20.77,37.87A29.7,29.7,0,0,1,796,276.76Z"/><path class="cls-1" d="M120.56,225.4H4.43A4.43,4.43,0,0,0,0,229.83V504.27a4.42,4.42,0,0,0,4.43,4.42H120.56a4.42,4.42,0,0,0,4.43-4.42h0v-44a112.42,112.42,0,0,1-26.67-29.68V482H26.65V252H98.32v144.5l26.66.76V346.38c-9.33-13.59-14-29.54-9.16-47.72a54,54,0,0,1,9.16-19V229.83a4.42,4.42,0,0,0-4.42-4.42Z"/><path class="cls-1" d="M278.09,289.17l.07.24a130.18,130.18,0,0,0-30.6-18.75,140.58,140.58,0,0,0-20.24-7.06C175.75,249.82,141.48,258,125,279.69a53.78,53.78,0,0,0-9.16,19c-4.85,18.18-.17,34.15,9.16,47.72,15.34,22.33,43.23,38.28,61.86,47.38,28,13.67,38.45,18.68,35.88,28.29-1.84,6.89-11.32,9.18-23.2,6a63.46,63.46,0,0,1-39.11-29.78l-35.41-1-26.66-.76V369.88l2.09.06a4.43,4.43,0,0,0,3.71-7,96.38,96.38,0,0,1-5.8-9.13V271.72a77.26,77.26,0,0,1,24.34-25.81c.76-.5,1.54-1,2.32-1.47,15.34-9.49,34.27-14.25,56.35-14.25,16,0,33.83,2.57,52.89,7.66A161.4,161.4,0,0,1,283.35,260,148.64,148.64,0,0,1,308,280.85Z"/><path class="cls-1" d="M321.14,443.63q-.76,4.31-2,8.79a81,81,0,0,1-15,29.57c-15.8,19.79-42.87,35.31-83.7,35.31-16.28,0-34.11-2.53-53-7.59A171.13,171.13,0,0,1,125,492.25a146.91,146.91,0,0,1-26.66-19.93V430.58A112.23,112.23,0,0,0,125,460.26c12.62,9.83,28.73,18.21,49.32,23.71C251.58,504.61,286,473.5,293.41,445.56c.09-.36.18-.71.26-1.07,5.18-20.35,1.19-36.83-14.79-53.12-10.62-10.83-26.52-21.58-48.57-33.35-29.42-15.71-47.29-22.76-44.51-33.11,1.75-6.61,12.53-6.38,22.66-3.68,14.54,3.89,30.93,12.52,34.63,24.6l23.5,1.41,28.13,1.68Z"/><path class="cls-1" d="M508,356.15l-3.75,31.56-27.46,7.64h0l-87.89,24.47-6.4-23,97.32-27.11,1.18-9.92-11.62-41.73-101,28.11-5-17.93L472.9,297.77l-16.23-58.32L308,280.85l-29.92,8.32.07.24a130.18,130.18,0,0,0-30.6-18.75,4.35,4.35,0,0,1,2-1.2L283.38,260l187.56-52.22a4.42,4.42,0,0,1,5.46,3.07h0L492,267.06l12.52,45a4.43,4.43,0,0,1-3.07,5.45h0a4.43,4.43,0,0,0-3.08,5.45l8.86,31.67A4.44,4.44,0,0,0,508,356.15Z"/><path class="cls-1" d="M522,473.26,465.62,489,321.8,529a4.43,4.43,0,0,1-5.45-3.08h0L304.13,482,293.68,444.5c5.17-20.35,1.18-36.83-14.8-53.12L266.6,347.24l28.13,1.69,26.41,94.7,14.94,53.75,133-37,27.47-7.65L494.46,470Z"/><path class="cls-1" d="M710.47,413.22l0,.36-7,58.75h0l-.22,1.9-.19,1.54-.19,1.64L698,517.34a3.35,3.35,0,0,1-3.71,2.95L468.47,493.42a3.38,3.38,0,0,1-3-3.74l.08-.72,3.4-28.62,27.47-7.64L494.41,470l27.6,3.28L674.54,491.4l3.22-27.08.16-1.3.11-.91.19-1.63,3.48-29.18L610,422.77h0l-4.53-.54-4-.48-2.87-.34-25.75-3.08L585.4,312.1,587.32,296l.28-2.36,2.07-17.41.73-6.16.74-6.23-2.67-.31L520,255.38,508,356.16l-3.75,31.56-27.45,7.64,3-25.61,1.18-9.93,11-92.75,4.48-37.65a3.37,3.37,0,0,1,3.73-2.95h0L613.6,240l3.48.41a3.37,3.37,0,0,1,2.93,3.73l-.9,7.57-.13,1.15-7.54,63.41-.5,4.15-2,16.78-1.26,10.63-1,8.17-.2,1.71L605,370.81l-2.51,21.13a3.36,3.36,0,0,0,2.93,3.74l92.13,10.95,1.29.15h0Z"/><path class="cls-1" d="M28.11,572.59v-3.51H19.25v-6.56H38.42V576.3c-3.9,3.79-9.88,5.7-16.75,5.7C9.1,582,1.33,575.52,1.33,565.13s7.5-16.86,19-16.86c10.07,0,16.87,4.18,17.53,11.55H27.41c-.31-2.18-3.05-3.59-6.87-3.59-5.7,0-8.86,3.2-8.86,8.87S15.31,574,21.59,574A12.83,12.83,0,0,0,28.11,572.59Z"/><path class="cls-1" d="M52.83,548.74H69.58l13.24,32.79h-11l-2.74-7.1H53.3l-2.73,7.1h-11Zm13.32,18.11-3.79-9.76H60l-3.79,9.76Z"/><path class="cls-1" d="M85.17,548.74H99.3L108,564.28l8.27-15.54h14.14v32.79H120.3V559.67l-8.66,17.1h-7.26l-9.14-17.45v22.21H85.17Z"/><path class="cls-1" d="M135.07,548.74h31v8.2H145.38v4.21h17.14v7.26H145.38v4.92H166v8.2h-31Z"/><path class="cls-1" d="M198.4,548.27c10.86,0,16.83,4.06,16.83,11.52H204.77c0-2.7-2.81-4-6.83-4-3.87,0-6,1.25-6,3.09s2.74,2.38,6,2.61c7.53.59,17.84.4,17.84,9.06,0,7.69-6,11.48-17,11.48-11.6,0-17.57-4.18-17.57-11.67h10.5c0,2.77,2.62,4.17,7.73,4.17,4.06,0,6-.89,6-2.69,0-2.38-3.32-2.73-7.61-3-6.83-.43-16.16-.66-16.16-9.83C181.62,552.17,187.75,548.27,198.4,548.27Z"/><path class="cls-1" d="M231.09,557.17H217.35v-8.43H255.1v8.43H241.4v24.36H231.09Z"/><path class="cls-1" d="M257.64,568.73v-20H268v19.75c0,3.13,2.58,4.84,7.22,4.84s7.19-1.71,7.19-4.84V548.74h10.3v20c0,8.43-6.36,13.27-17.49,13.27S257.64,577.16,257.64,568.73Z"/><path class="cls-1" d="M297.16,548.74h18.58c10.82,0,17.77,6.4,17.77,16.39s-6.95,16.4-17.77,16.4H297.16Zm18.58,24.36c4.46,0,7.42-3.24,7.42-8s-3-7.93-7.42-7.93h-8.27V573.1Z"/><path class="cls-1" d="M337.42,548.74h10.31v32.79H337.42Z"/><path class="cls-1" d="M371,548.27c12.8,0,19.75,6.6,19.75,16.86S383.8,582,371,582s-19.76-6.6-19.76-16.87S358.15,548.27,371,548.27Zm0,25.06c6.52,0,9.37-3.12,9.37-8.2s-2.85-8.19-9.37-8.19-9.41,3.12-9.41,8.19S364.44,573.33,371,573.33Z"/><path class="cls-1" d="M410.32,548.27c10.85,0,16.83,4.06,16.83,11.52H416.68c0-2.7-2.81-4-6.83-4-3.86,0-6,1.25-6,3.09s2.73,2.38,6,2.61c7.54.59,17.84.4,17.84,9.06,0,7.69-6,11.48-17,11.48-11.6,0-17.57-4.18-17.57-11.67h10.5c0,2.77,2.62,4.17,7.73,4.17,4.06,0,6-.89,6-2.69,0-2.38-3.32-2.73-7.62-3-6.83-.43-16.16-.66-16.16-9.83C393.53,552.17,399.66,548.27,410.32,548.27Z"/></g></g></svg>