<svg xmlns="http://www.w3.org/2000/svg" viewBox="0 0 779.76 485.72"><g id="Layer_2" data-name="Layer 2"><g id="Layer_3" data-name="Layer 3"><path d="M762.63,216.25,657,153.72a36,36,0,0,0-4.79-2.36l27.27,49.7a43.79,43.79,0,0,1-74.05,46.48l-4.82-8.68-32-57.82L513.7,209.52A34.94,34.94,0,0,0,511,270l106.32,55.56a34.89,34.89,0,0,0,36.06,1l108.72-49.63a34.92,34.92,0,0,0,17.69-29.43v-.15A35,35,0,0,0,762.63,216.25Zm-202,43.83a18.85,18.85,0,1,1,19.36-18.33A18.85,18.85,0,0,1,560.58,260.08ZM713,264.26a18.85,18.85,0,1,1,19.37-18.33A18.86,18.86,0,0,1,713,264.26Z"/><path d="M778.6,299.61l-1,35.71a34.94,34.94,0,0,1-17.7,29.44L651.21,414.35a34.94,34.94,0,0,1-36.06-1l-28.6-14.95-20.91-10.93.13-1.09.09-.76.16-1.36L568.93,360l-59.88-7.12h0l-3.78-.45-3.37-.4a34.91,34.91,0,0,1-9.16-24.55l1-35.63,12.49,6.72,75.93,40.84,10.78,5.8,23.54,12.66a35,35,0,0,0,36,1Z"/><path d="M664.32,231a24.84,24.84,0,0,1-28.25,15.51h0a24.78,24.78,0,0,1-16.77-12.39l-17.35-31.61h0L588.48,178l-3.08-5.62L579,160.7a81,81,0,0,1-17.65,1.43c-1.08,0-2.16-.08-3.23-.15a81.2,81.2,0,1,1,64.45-25.28l7.35,13.4,2.1,3.83,13.52,24.64,17.34,31.6A24.81,24.81,0,0,1,664.32,231Z"/><path d="M100.62,188.11H3.69A3.7,3.7,0,0,0,0,191.81v229a3.7,3.7,0,0,0,3.69,3.7h96.93a3.7,3.7,0,0,0,3.69-3.7h0V384.12a93.89,93.89,0,0,1-22.25-24.76v42.91H22.24V210.34H82.06V330.93l22.25.63V289.07c-7.79-11.33-11.7-24.64-7.65-39.82a44.82,44.82,0,0,1,7.65-15.83V191.81a3.7,3.7,0,0,0-3.7-3.69Z"/><path d="M232.08,241.33l.06.21a107.64,107.64,0,0,0-25.54-15.65,115.7,115.7,0,0,0-16.89-5.9c-43-11.5-71.63-4.64-85.41,13.43a44.82,44.82,0,0,0-7.65,15.83c-4.05,15.18-.14,28.5,7.65,39.82,12.8,18.64,36.07,32,51.62,39.55C179.31,340,188,344.21,185.86,352.23c-1.53,5.75-9.44,7.66-19.35,5a53,53,0,0,1-32.65-24.84l-29.55-.84-22.25-.63V308.69l1.75.05a3.7,3.7,0,0,0,3.09-5.85,81.67,81.67,0,0,1-4.84-7.62v-68.5a64.5,64.5,0,0,1,20.31-21.54c.64-.42,1.29-.83,1.94-1.23,12.8-7.92,28.6-11.89,47-11.89,13.39,0,28.24,2.15,44.14,6.39a134.8,134.8,0,0,1,41,18.52,124.2,124.2,0,0,1,20.58,17.36Z"/><path d="M268,370.24c-.42,2.39-1,4.84-1.64,7.33a67.57,67.57,0,0,1-12.54,24.69c-13.19,16.51-35.78,29.46-69.86,29.46a172.3,172.3,0,0,1-44.22-6.33,143.28,143.28,0,0,1-35.41-14.57,122.58,122.58,0,0,1-22.25-16.64V359.35a93.6,93.6,0,0,0,22.25,24.77c10.53,8.2,24,15.19,41.16,19.79,64.46,17.22,93.14-8.74,99.37-32.06.08-.3.15-.59.22-.89,4.32-17,1-30.74-12.35-44.33-8.86-9-22.13-18-40.53-27.84-24.55-13.11-39.47-19-37.15-27.63,1.47-5.52,10.46-5.32,18.91-3.07,12.14,3.25,25.81,10.45,28.91,20.53l19.61,1.17L246,291.2Z"/><path d="M423.94,297.23l-3.14,26.34L397.89,330h0l-73.36,20.41-5.33-19.17,81.22-22.62,1-8.28-9.7-34.83-84.26,23.46-4.17-15,91.4-25.44-13.55-48.67L257.05,234.38l-25,7,.06.21a107.64,107.64,0,0,0-25.54-15.65,3.69,3.69,0,0,1,1.67-1L236.5,217,393,173.44a3.69,3.69,0,0,1,4.56,2.56h0l13.05,46.88,10.45,37.53a3.69,3.69,0,0,1-2.57,4.55h0a3.7,3.7,0,0,0-2.7,3.55,3.77,3.77,0,0,0,.14,1l7.39,26.42A3.65,3.65,0,0,0,423.94,297.23Z"/><path d="M435.66,395l-47.07,13.11-120,33.41a3.7,3.7,0,0,1-4.55-2.56h0l-10.2-36.64L245.1,371c4.31-17,1-30.73-12.35-44.33L222.49,289.8,246,291.21l22,79,12.47,44.86,111-30.89,22.92-6.38-1.72,14.4Z"/><path d="M592.94,344.86l0,.3-5.85,49h0l-.18,1.59-.16,1.28-.16,1.37-4,33.32a2.81,2.81,0,0,1-3.1,2.46L391,411.79a2.81,2.81,0,0,1-2.46-3.12l.07-.6,2.83-23.88,22.93-6.38-1.72,14.41,23,2.74L563,410.11l2.69-22.6.13-1.09.09-.76.16-1.36L568.93,360l-59.88-7.12h0l-3.78-.45-3.37-.4-2.39-.28L478,349.13l10.55-88.66,1.6-13.43.23-2,1.73-14.53.61-5.14.62-5.2-2.23-.26L434,213.13l-10,84.11-3.13,26.34L397.88,330l2.54-21.38,1-8.28,9.21-77.41,3.74-31.42a2.8,2.8,0,0,1,3.11-2.46h0l94.62,11.27,2.91.34a2.81,2.81,0,0,1,2.44,3.12l-.75,6.31-.11,1-6.29,52.92-.42,3.47-1.66,14-1,8.87-.8,6.82-.17,1.43-1.31,11-2.09,17.63a2.79,2.79,0,0,0,2.44,3.12l76.89,9.14,1.08.13h0Z"/><path d="M23.46,477.87v-2.94H16.07v-5.47h16V481c-3.25,3.16-8.24,4.76-14,4.76-10.5,0-17-5.41-17-14.08S7.37,457.57,17,457.57c8.41,0,14.08,3.48,14.63,9.64H22.88c-.27-1.82-2.55-3-5.74-3-4.76,0-7.4,2.68-7.4,7.4s3,7.46,8.28,7.46A10.83,10.83,0,0,0,23.46,477.87Z"/><path d="M44.09,458h14l11.05,27.37H59.93l-2.28-5.93H44.48l-2.28,5.93H33.05ZM55.2,473.08,52,464.93H50.09l-3.16,8.15Z"/><path d="M71.08,458H82.87l7.24,13L97,458h11.8v27.37H100.4V467.08l-7.23,14.27H87.11l-7.63-14.56v18.54h-8.4Z"/><path d="M112.73,458h25.83v6.84H121.33v3.52h14.3v6.06h-14.3v4.11h17.23v6.84H112.73Z"/><path d="M165.58,457.57c9.06,0,14,3.39,14,9.61h-8.73c0-2.25-2.34-3.36-5.7-3.36s-5,1-5,2.58,2.28,2,5,2.18c6.29.49,14.89.33,14.89,7.56,0,6.42-5,9.58-14.2,9.58-9.68,0-14.67-3.49-14.67-9.74H160c0,2.31,2.18,3.48,6.45,3.48,3.39,0,5-.75,5-2.25,0-2-2.77-2.28-6.35-2.5-5.7-.36-13.49-.56-13.49-8.22C151.57,460.82,156.69,457.57,165.58,457.57Z"/><path d="M192.86,465H181.39v-7H212.9v7H201.46v20.33h-8.6Z"/><path d="M215,474.64V458h8.6v16.48c0,2.61,2.15,4.05,6,4.05s6-1.44,6-4.05V458h8.6v16.68c0,7-5.31,11.08-14.6,11.08S215,481.68,215,474.64Z"/><path d="M248,458h15.51c9,0,14.83,5.34,14.83,13.68s-5.8,13.69-14.83,13.69H248Zm15.51,20.33c3.71,0,6.19-2.7,6.19-6.68s-2.48-6.61-6.19-6.61H256.6v13.29Z"/><path d="M281.6,458h8.6v27.37h-8.6Z"/><path d="M309.62,457.57c10.69,0,16.49,5.5,16.49,14.07s-5.8,14.08-16.49,14.08-16.48-5.51-16.48-14.08S298.9,457.57,309.62,457.57Zm0,20.92c5.44,0,7.82-2.61,7.82-6.85s-2.38-6.84-7.82-6.84-7.85,2.61-7.85,6.84S304.15,478.49,309.62,478.49Z"/><path d="M342.44,457.57c9.06,0,14,3.39,14,9.61h-8.73c0-2.25-2.35-3.36-5.7-3.36s-5,1-5,2.58,2.28,2,5,2.18c6.29.49,14.89.33,14.89,7.56,0,6.42-5,9.58-14.21,9.58-9.68,0-14.66-3.49-14.66-9.74h8.76c0,2.31,2.19,3.48,6.46,3.48,3.38,0,5-.75,5-2.25,0-2-2.77-2.28-6.35-2.5-5.7-.36-13.49-.56-13.49-8.22C328.43,460.82,333.54,457.57,342.44,457.57Z"/></g></g></svg>