<svg xmlns="http://www.w3.org/2000/svg" viewBox="0 0 510.3 704.36"><defs><style>.cls-1{fill:#fff;}</style></defs><g id="Layer_2" data-name="Layer 2"><g id="Layer_1-2" data-name="Layer 1"><path class="cls-1" d="M479.46,356.1,298.14,255.37a59,59,0,0,0-8.18-3.76l48.36,82.69a74,74,0,0,1-122.93,81.93l-8.54-14.44-56.78-96.17L58.68,356.25A59.06,59.06,0,0,0,56.86,458.5L239,547.42a59,59,0,0,0,61,0L481.3,458.51A59,59,0,0,0,509.82,408v-.25A59,59,0,0,0,479.46,356.1ZM140.21,439.49a31.86,31.86,0,1,1,31.86-31.86A31.86,31.86,0,0,1,140.21,439.49Zm257.65,0a31.86,31.86,0,1,1,31.86-31.86A31.85,31.85,0,0,1,397.86,439.49Z"/><path class="cls-1" d="M28.72,496.16,239.09,602a59.06,59.06,0,0,0,60.84,0L510.3,496.16v60.36a59,59,0,0,1-28.53,50.55l-181.33,88.8a59,59,0,0,1-60.94,0L57.33,607a59.05,59.05,0,0,1-28.61-50.6Z"/><path class="cls-1" d="M314.09,385.52a42,42,0,0,1-47,27.5h0a41.89,41.89,0,0,1-28.91-20.15L207.4,340.28h0l-23.86-40.79-5.47-9.36-11.32-19.35A137.46,137.46,0,0,1,137,274c-1.83,0-3.65,0-5.47-.11a137.1,137.1,0,1,1,107.7-45.67l13,22.28,3.73,6.37,24,41,30.74,52.57A41.87,41.87,0,0,1,314.09,385.52Z"/></g></g></svg>