<svg id="Layer_1" data-name="Layer 1" xmlns="http://www.w3.org/2000/svg" viewBox="0 0 1444.4 878.5"><defs><style>.cls-1{fill:#fff;}.cls-2{isolation:isolate;}</style></defs><path class="cls-1" d="M1444.91,562.75a14.1,14.1,0,0,1-6.81,12.34l-240.57,144.6a14.08,14.08,0,0,1-14,.27l-71.27-39.12-39.41-21.63h0l5.8-48.7L958,596.16h0l-20-11a14.09,14.09,0,0,1-7.3-12.07l-2.16-110.58a1.3,1.3,0,0,1,1.27-1.33,1.27,1.27,0,0,1,.66.16l31.09,17.08,201.79,110.79a49.41,49.41,0,0,0,49.27-1l228.13-137.13a1.3,1.3,0,0,1,1.8.4,1.27,1.27,0,0,1,.2.69Z" transform="translate(-0.51 0.02)"/><path class="cls-1" d="M1157.47,369l-63.75-109.46,54.58-32.79,2.86-1.72,65,111.65,5.6,9.56a34.12,34.12,0,0,1-56.89,35.42Z" transform="translate(-0.51 0.02)"/><path class="cls-1" d="M1443.59,355.57a11.87,11.87,0,0,0-6.16-10.16L1189.17,209.09c-.13-.08-.29-.16-.45-.24l62.55,107.39,7.26,12.36,1.19,3.12a74.73,74.73,0,0,1-124.62,77.57l-3-3.23-9.74-16.57-63.46-109-79.48,47.76L935.1,354.89c-.32.19-.62.4-.92.62l-4.44,37.27.12,8.28A11.88,11.88,0,0,0,936,411.24l31.47,17.27,197.34,108.36a49.42,49.42,0,0,0,49.25-1l224.29-134.74a11.83,11.83,0,0,0,5.74-10.41Zm-393.75,54.05a31.28,31.28,0,1,1,30.66-31.89A31.28,31.28,0,0,1,1049.84,409.62Zm275-6.07a31.29,31.29,0,1,1,30.67-31.9,31.29,31.29,0,0,1-30.67,31.9h0Z" transform="translate(-0.51 0.02)"/><path class="cls-1" d="M1224.06,358.78a34.12,34.12,0,0,1-59.15,22.92l-7.44-12.7-63.75-109.46L1083.48,242l-18.19-31.25,58.32-33L1141,207.58,1151.16,225l65,111.65,5.6,9.56A34,34,0,0,1,1224.06,358.78Z" transform="translate(-0.51 0.02)"/><path class="cls-1" d="M1174.6,124a123,123,0,0,1-123.81,122.18h-.19a112.17,112.17,0,0,1-12.09-.68A123.1,123.1,0,1,1,1174.6,124Z" transform="translate(-0.51 0.02)"/><path class="cls-1" d="M191.17,284.89H7.51a7,7,0,0,0-7,7v434a7,7,0,0,0,7,7H191.17a7,7,0,0,0,7-7h0V656.31A177.65,177.65,0,0,1,156,609.38v81.31H42.66V327H156V555.52l42.16,1.19V476.2c-14.76-21.48-22.16-46.7-14.49-75.46a85.15,85.15,0,0,1,14.49-30V291.9a7,7,0,0,0-7-7Z" transform="translate(-0.51 0.02)"/><path class="cls-1" d="M440.28,385.73l.12.39A205.13,205.13,0,0,0,392,356.47,222.47,222.47,0,0,0,360,345.29c-81.56-21.79-135.75-8.78-161.86,25.45a85.15,85.15,0,0,0-14.49,30c-7.67,28.76-.27,54,14.49,75.46,24.26,35.32,68.36,60.55,97.82,74.94,44.32,21.61,60.81,29.54,56.74,44.73-2.9,10.9-17.89,14.52-36.68,9.5-17.8-4.75-44.34-16.84-61.85-47.08l-56-1.58-42.16-1.19V513.37l3.31.09a7,7,0,0,0,5.86-11.08,155,155,0,0,1-9.17-14.44V358.14a122.09,122.09,0,0,1,38.49-40.81c1.21-.8,2.44-1.58,3.67-2.34,24.26-15,54.2-22.53,89.12-22.53,25.37,0,53.5,4.07,83.63,12.11a255.77,255.77,0,0,1,77.69,35.09,235.92,235.92,0,0,1,39,32.91Z" transform="translate(-0.51 0.02)"/><path class="cls-1" d="M508.36,630q-1.2,6.81-3.1,13.9a128,128,0,0,1-23.77,46.77c-25,31.29-67.8,55.83-132.37,55.83-25.74,0-53.94-4-83.79-12a270.45,270.45,0,0,1-67.11-27.61,231.66,231.66,0,0,1-42.16-31.52v-66a177.65,177.65,0,0,0,42.16,46.93c19.95,15.55,45.44,28.79,78,37.5,122.14,32.64,176.49-16.56,188.29-60.74.15-.57.29-1.13.42-1.7,8.18-32.18,1.87-58.24-23.4-84-16.79-17.13-41.94-34.13-76.8-52.74-46.53-24.85-74.79-36-70.4-52.36,2.78-10.46,19.82-10.09,35.84-5.82,23,6.15,48.91,19.8,54.77,38.9l37.16,2.22,44.49,2.67Z" transform="translate(-0.51 0.02)"/><path class="cls-1" d="M803.83,491.66l-5.94,49.9-43.42,12.09h0l-139,38.69L605.36,556l153.9-42.86,1.87-15.69-18.38-66L583.07,475.9l-7.89-28.35,173.18-48.21L722.7,307.11,487.6,372.57l-47.32,13.16.12.39A205.13,205.13,0,0,0,392,356.47a6.92,6.92,0,0,1,3.16-1.91l53.49-14.9,296.62-82.58a7,7,0,0,1,8.63,4.86h0l24.73,88.83,19.8,71.11a7,7,0,0,1-4.86,8.62h0a7,7,0,0,0-5.12,6.73,6.69,6.69,0,0,0,.26,1.89l14,50.08A7,7,0,0,0,803.83,491.66Z" transform="translate(-0.51 0.02)"/><path class="cls-1" d="M826.05,676.85l-89.2,24.84L509.41,765a7,7,0,0,1-8.62-4.86v0l-19.33-69.42-16.52-59.35c8.18-32.18,1.87-58.24-23.4-84l-19.43-69.8,44.49,2.67L508.36,630,532,715l210.28-58.53,43.44-12.09-3.26,27.3Z" transform="translate(-0.51 0.02)"/><path class="cls-1" d="M1124.36,579.3l-12.09,101.54-7.91,65.74a5.31,5.31,0,0,1-5.87,4.66h0L741.36,708.74a5.33,5.33,0,0,1-4.67-5.92h0l.13-1.13,5.38-45.25,43.44-12.09-3.26,27.3,43.64,5.2h0l241.23,28.7,5.51-46.34h0l5.8-48.7L957.92,596.16h0L906.29,590l23.46-197.19,4.44-37.27,1.17-9.85L822.8,332.29l-19,159.38-5.94,49.9-43.42,12.09,4.81-40.5,1.87-15.69,17.45-146.68,7.09-59.54a5.31,5.31,0,0,1,5.91-4.66h0l184.8,22A5.32,5.32,0,0,1,981,314.5h0l-1.63,13.78L967.46,428.55l-5.94,49.91-8.29,69.78a5.32,5.32,0,0,0,4.64,5.92h0l161.73,19.24a5.34,5.34,0,0,1,4.75,5.89Z" transform="translate(-0.51 0.02)"/><path class="cls-1" d="M899.36,648.6" transform="translate(-0.51 0.02)"/><g class="cls-2"><g class="cls-2"><path class="cls-1" d="M74.72,820.64l-14.79,7.5c-3.55-4.48-9.07-7-17.2-7-12.4,0-21,8.65-21,20.43a20.89,20.89,0,0,0,21.26,20.95c7.61,0,13.65-2.4,17.4-5.94v-6.88H38.77V836.59H75.45v26.26c-.52,1-11.67,15.63-32.41,15.63-23.45,0-38.56-17.61-38.56-36.68,0-19.7,16.16-36.69,38.46-36.69A38.94,38.94,0,0,1,74.72,820.64Z" transform="translate(-0.51 0.02)"/></g><g class="cls-2"><path class="cls-1" d="M137.05,866.18H102.87l-4.69,11.05H80l30.33-70.87h19.07l30.43,70.87H141.63Zm-5.94-14-11.05-26.47-11.25,26.47Z" transform="translate(-0.51 0.02)"/><path class="cls-1" d="M258.78,877.23h-17.2V841.07l-17,36.16H205.52l-17-36.16v36.16H171.44V806.36h19l24.7,52,24.59-52h19.08Z" transform="translate(-0.51 0.02)"/><path class="cls-1" d="M328.81,806.36V822.2h-37.2v12.2h31.05v14.8H291.61v12.19h37.2v15.84H274.52V806.36Z" transform="translate(-0.51 0.02)"/></g><g class="cls-2"><path class="cls-1" d="M422.3,828.77h-17c0-3.55-4.17-8.34-11.47-8.34-5.1,0-11.36,2.29-11.36,6.36,0,3.44,4.69,4.79,14.7,7.4,11.15,2.92,26.88,6.67,26.88,22.3,0,13.55-11.88,22-28.45,22-22.19,0-31.47-15-31.47-26.05h17s1.35,11.25,15.42,11.25c7.61,0,10.42-3.23,10.42-6.25,0-4.48-5.94-6-12.5-7.61-10.63-2.5-29.29-6.46-29.29-22.2,0-12.92,12.72-22.51,28.87-22.51C412.51,805.11,422.3,817.72,422.3,828.77Z" transform="translate(-0.51 0.02)"/></g><g class="cls-2"><path class="cls-1" d="M496.81,822.2H471.7v55H454.4v-55H429.28V806.36h67.53Z" transform="translate(-0.51 0.02)"/><path class="cls-1" d="M573.31,840.86c0,23.45-14.8,37.62-34.6,37.62-20.11,0-33.77-14.17-33.77-37.62v-34.5H522v34.5c0,13.65,5.83,21.78,16.67,21.78,10.63,0,17.3-8.13,17.3-21.78v-34.5h17.3Z" transform="translate(-0.51 0.02)"/><path class="cls-1" d="M654.39,841.69c0,20.64-15.32,35.54-37.41,35.54H585.61V806.47l31.37-.11C640.32,806.26,654.39,821.27,654.39,841.69Zm-51.69,19.7H617c11.88,0,20.11-7.82,20.11-19.7,0-12.71-8-19.49-20.11-19.49H602.7Z" transform="translate(-0.51 0.02)"/><path class="cls-1" d="M683.47,877.23H666.38V806.36h17.09Z" transform="translate(-0.51 0.02)"/><path class="cls-1" d="M767.89,841.8a36.58,36.58,0,1,1-36.58-36.69A36.72,36.72,0,0,1,767.89,841.8Zm-57.53,0a20.85,20.85,0,1,0,20.95-20.74A20.86,20.86,0,0,0,710.36,841.8Z" transform="translate(-0.51 0.02)"/><path class="cls-1" d="M834.07,828.77h-17c0-3.55-4.17-8.34-11.46-8.34-5.11,0-11.36,2.29-11.36,6.36,0,3.44,4.69,4.79,14.69,7.4,11.15,2.92,26.89,6.67,26.89,22.3,0,13.55-11.88,22-28.45,22-22.2,0-31.48-15-31.48-26.05h17s1.36,11.25,15.43,11.25c7.6,0,10.42-3.23,10.42-6.25,0-4.48-5.94-6-12.51-7.61-10.63-2.5-29.28-6.46-29.28-22.2,0-12.92,12.71-22.51,28.86-22.51C824.27,805.11,834.07,817.72,834.07,828.77Z" transform="translate(-0.51 0.02)"/></g></g></svg>