<svg id="Layer_1" data-name="Layer 1" xmlns="http://www.w3.org/2000/svg" viewBox="0 0 1444.91 921"><defs><style>.cls-1,.cls-2{fill:#fff;}.cls-2{font-size:104.22px;font-family:AXIS-ExtraBold, AXIS;font-weight:800;}.cls-3{letter-spacing:-0.04em;}.cls-4{letter-spacing:-0.03em;}.cls-5{letter-spacing:0em;}</style></defs><path class="cls-1" d="M1673.55,634.75a14.09,14.09,0,0,1-6.81,12.34l-240.57,144.6a14.08,14.08,0,0,1-14,.27l-71.27-39.12-39.41-21.63v0l5.8-48.7-120.64-14.35h0l-20-11a14.1,14.1,0,0,1-7.3-12.07l-2.16-110.58a1.3,1.3,0,0,1,1.93-1.17l31.09,17.08L1392,661.21a49.41,49.41,0,0,0,49.27-1L1669.4,523.08a1.3,1.3,0,0,1,2,1.09Z" transform="translate(-228.64 -72)"/><path class="cls-1" d="M1386.11,441l-63.75-109.46,54.58-32.79,2.86-1.72,65,111.65,5.6,9.56a34.12,34.12,0,0,1-56.89,35.42Z" transform="translate(-228.64 -72)"/><path class="cls-1" d="M1672.23,427.57a11.86,11.86,0,0,0-6.16-10.16L1417.81,281.09c-.13-.08-.29-.16-.45-.24l62.55,107.39,7.26,12.36,1.19,3.12a74.73,74.73,0,0,1-124.62,77.57l-3-3.23L1351,461.49l-63.46-109-79.48,47.76-44.32,26.64a10.59,10.59,0,0,0-.92.62l-4.44,37.27.12,8.28a11.89,11.89,0,0,0,6.15,10.18l31.47,17.27,197.34,108.36a49.42,49.42,0,0,0,49.25-1L1667,473.13a11.83,11.83,0,0,0,5.74-10.41Zm-393.75,54.05a31.28,31.28,0,1,1,30.66-31.89A31.3,31.3,0,0,1,1278.48,481.62Zm275-6.07a31.29,31.29,0,1,1,30.67-31.9A31.28,31.28,0,0,1,1553.47,475.55Z" transform="translate(-228.64 -72)"/><path class="cls-1" d="M1452.7,430.78a34.12,34.12,0,0,1-59.15,22.92L1386.11,441l-63.75-109.46L1312.12,314l-18.19-31.25,58.32-33,17.37,29.83,10.18,17.46,65,111.65,5.6,9.56A34.16,34.16,0,0,1,1452.7,430.78Z" transform="translate(-228.64 -72)"/><path class="cls-1" d="M1403.24,196a123,123,0,0,1-124,122.18c-4.09,0-8.12-.25-12.09-.68A123.1,123.1,0,1,1,1403.24,196Z" transform="translate(-228.64 -72)"/><path class="cls-1" d="M419.81,356.89H236.15a7,7,0,0,0-7,7V797.84a7,7,0,0,0,7,7H419.81a7,7,0,0,0,7-7V728.31a177.67,177.67,0,0,1-42.16-46.93v81.31H271.3V399H384.66V627.52l42.16,1.19V548.2c-14.76-21.48-22.16-46.7-14.49-75.46a85.13,85.13,0,0,1,14.49-30V363.9A7,7,0,0,0,419.81,356.89Z" transform="translate(-228.64 -72)"/><path class="cls-1" d="M668.92,457.73l.12.39a205.48,205.48,0,0,0-48.43-29.65,222,222,0,0,0-31.93-11.18c-81.56-21.79-135.75-8.78-161.86,25.45a85.13,85.13,0,0,0-14.49,30c-7.67,28.76-.27,54,14.49,75.46,24.26,35.32,68.36,60.55,97.82,74.94,44.32,21.61,60.81,29.54,56.74,44.73-2.9,10.9-17.89,14.52-36.68,9.5-17.8-4.75-44.34-16.84-61.85-47.08l-56-1.58-42.16-1.19V585.37l3.31.09a7,7,0,0,0,5.86-11.08,157.13,157.13,0,0,1-9.17-14.44V430.14a122.15,122.15,0,0,1,38.49-40.81c1.21-.8,2.44-1.58,3.67-2.34,24.26-15,54.2-22.53,89.12-22.53,25.37,0,53.5,4.07,83.63,12.11a255.7,255.7,0,0,1,77.69,35.09,235.58,235.58,0,0,1,39,32.91Z" transform="translate(-228.64 -72)"/><path class="cls-1" d="M737,702q-1.2,6.81-3.1,13.9a128,128,0,0,1-23.77,46.77c-25,31.29-67.8,55.83-132.37,55.83-25.74,0-53.94-4-83.79-12a270.46,270.46,0,0,1-67.11-27.61,231.7,231.7,0,0,1-42.16-31.52v-66a177.67,177.67,0,0,0,42.16,46.93c19.95,15.55,45.44,28.79,78,37.5C627,798.44,681.35,749.24,693.15,705.06c.15-.57.29-1.13.42-1.7,8.18-32.18,1.87-58.24-23.4-84-16.79-17.13-41.94-34.13-76.8-52.74-46.53-24.85-74.79-36-70.4-52.36,2.78-10.46,19.82-10.09,35.84-5.82,23,6.15,48.91,19.8,54.77,38.9l37.16,2.22,44.49,2.67Z" transform="translate(-228.64 -72)"/><path class="cls-1" d="M1032.47,563.66l-5.94,49.9-43.42,12.09h0l-139,38.69L834,628l153.9-42.86,1.87-15.69-18.38-66L811.71,547.9l-7.89-28.35L977,471.34l-25.66-92.23-235.1,65.46-47.32,13.16.12.39a205.48,205.48,0,0,0-48.43-29.65,6.85,6.85,0,0,1,3.16-1.91l53.49-14.9,296.62-82.58a7,7,0,0,1,8.63,4.87l24.73,88.83,19.8,71.11a7,7,0,0,1-4.89,8.63,7,7,0,0,0-5.12,6.73,6.79,6.79,0,0,0,.26,1.89l14,50.08A7,7,0,0,0,1032.47,563.66Z" transform="translate(-228.64 -72)"/><path class="cls-1" d="M1054.69,748.85l-89.2,24.84L738.05,837a7,7,0,0,1-8.63-4.89l-19.33-69.42-16.52-59.35c8.18-32.18,1.87-58.24-23.4-84l-19.43-69.8,44.49,2.67L737,702,760.59,787l210.28-58.53,43.44-12.09-3.26,27.3Z" transform="translate(-228.64 -72)"/><path class="cls-1" d="M1353,651.3l-12.09,101.54L1333,818.58a5.3,5.3,0,0,1-5.92,4.65L970,780.74a5.33,5.33,0,0,1-4.67-5.92l.13-1.13,5.38-45.25,43.44-12.09-3.26,27.3,43.64,5.2h0l241.23,28.7,5.51-46.34v0l5.8-48.7-120.64-14.35h0L1134.93,662l23.46-197.19,4.44-37.27,1.17-9.85-112.56-13.4-19,159.38-5.94,49.9-43.42,12.09,4.81-40.5,1.87-15.69,17.45-146.68,7.09-59.54a5.32,5.32,0,0,1,5.92-4.66l184.8,22a5.32,5.32,0,0,1,4.65,5.92l-1.63,13.78-11.94,100.26-5.94,49.91-8.29,69.78a5.32,5.32,0,0,0,4.65,5.92l161.73,19.24A5.35,5.35,0,0,1,1353,651.3Z" transform="translate(-228.64 -72)"/><path class="cls-1" d="M1128,720.6" transform="translate(-228.64 -72)"/><text class="cls-2" transform="translate(0 877.23)"><tspan class="cls-3">G</tspan><tspan x="76.29" y="0">ame </tspan><tspan class="cls-4" x="359.46" y="0">S</tspan><tspan class="cls-5" x="425.53" y="0">tudios</tspan></text></svg>