<svg xmlns="http://www.w3.org/2000/svg" viewBox="0 0 370.93 512"><defs><style>.cls-1{fill:#e61e1e;}</style></defs><g id="Layer_2" data-name="Layer 2"><g id="Layer_3" data-name="Layer 3"><path class="cls-1" d="M348.52,258.85l-131.8-73.22a43.08,43.08,0,0,0-5.95-2.74L245.92,243a53.79,53.79,0,0,1-89.35,59.56l-6.21-10.5-41.27-69.91L42.66,259a42.91,42.91,0,0,0-1.33,74.32l132.41,64.64a42.89,42.89,0,0,0,44.31,0l131.81-64.59a42.91,42.91,0,0,0,20.73-36.74v-.18A42.9,42.9,0,0,0,348.52,258.85Zm-246.6,60.61a23.15,23.15,0,1,1,23.16-23.15A23.15,23.15,0,0,1,101.92,319.46Zm187.29,0a23.15,23.15,0,1,1,23.15-23.15A23.15,23.15,0,0,1,289.21,319.46Z"/><path class="cls-1" d="M20.88,360.66l152.91,76.93a42.93,42.93,0,0,0,44.23,0l152.91-76.93v43.87a42.93,42.93,0,0,1-20.74,36.75l-131.8,64.55a42.92,42.92,0,0,1-44.3,0L41.67,441.21a42.92,42.92,0,0,1-20.79-36.78Z"/><path class="cls-1" d="M228.31,280.23a30.5,30.5,0,0,1-34.16,20h0a30.48,30.48,0,0,1-21-14.65l-22.37-38.23h0l-17.34-29.65-4-6.8-8.23-14.07a99.4,99.4,0,0,1-21.62,2.35c-1.34,0-2.66,0-4-.07a99.68,99.68,0,1,1,78.28-33.2l9.47,16.19,2.72,4.64,17.43,29.79,22.35,38.21A30.47,30.47,0,0,1,228.31,280.23Z"/></g></g></svg>