<svg id="Layer_1" data-name="Layer 1" xmlns="http://www.w3.org/2000/svg" viewBox="0 0 530.28 740.98"><path d="M987.11,779,748,647.7a1.34,1.34,0,0,0-2,1.2l2.22,113.54a14.45,14.45,0,0,0,7.49,12.38l252.06,138.4a14.46,14.46,0,0,0,14.4-.29l247-148.46a14.45,14.45,0,0,0,7-12.67L1274,638.26a1.35,1.35,0,0,0-2-1.12L1037.68,778A50.77,50.77,0,0,1,987.11,779Z" transform="translate(-745.95 -174.02)"/><path d="M1274.87,539.1a12.16,12.16,0,0,0-6.32-10.45L1013.66,388.7a4.37,4.37,0,0,0-.43-.22l64.19,110.22,7.44,12.7,1.23,3.19a76.74,76.74,0,0,1-128,79.66l-3.07-3.33-10-17L879.92,462l-127.1,76.4a12.2,12.2,0,0,0-5.91,10.68l.52,36.72a12.2,12.2,0,0,0,6.32,10.44l234.92,129a50.72,50.72,0,0,0,50.57-1l230.23-138.38a12.21,12.21,0,0,0,5.91-10.69ZM870.6,594.58a32.12,32.12,0,1,1,31.48-32.73A32.11,32.11,0,0,1,870.6,594.58ZM1153,588.34a32.12,32.12,0,1,1,31.48-32.74A32.11,32.11,0,0,1,1153,588.34Zm-105.79-58.78-5.76-9.82L974.63,405.1l-2.94,1.76-56,33.67,65.45,112.39,7.62,13a35,35,0,0,0,58.42-36.35Z" transform="translate(-745.95 -174.02)"/><path d="M1049.49,542.38a35,35,0,0,1-60.75,23.53l-7.62-13L915.67,440.53l-10.51-18a126.22,126.22,0,0,1-33.76,4.3c-4.19,0-8.34-.27-12.42-.7l-29.83-51.22L961.68,300l27.84,47.8a126.14,126.14,0,0,1-25.33,39.4l10.44,17.92,66.77,114.64,5.76,9.82A35,35,0,0,1,1049.49,542.38Z" transform="translate(-745.95 -174.02)"/><path d="M1049.49,542.38a35,35,0,0,1-60.75,23.53l-7.62-13L915.67,440.53l-10.51-18-18.69-32.09,59.88-33.84,17.84,30.63,10.44,17.92,66.77,114.64,5.76,9.82A35,35,0,0,1,1049.49,542.38Z" transform="translate(-745.95 -174.02)"/><path d="M998.7,301.33A126.23,126.23,0,0,1,871.4,426.78c-4.19,0-8.34-.27-12.42-.7A126.38,126.38,0,1,1,998.7,301.33Z" transform="translate(-745.95 -174.02)"/></svg>